<svg xmlns="http://www.w3.org/2000/svg" xmlns:xlink="http://www.w3.org/1999/xlink" viewBox="0 0 158.08 164.82"><defs><style>.cls-1{fill:#fff;}.cls-2{fill:url(#Dégradé_sans_nom_10);}.cls-3{fill:#ff9474;}.cls-4{fill:url(#Dégradé_sans_nom_12);}.cls-5{fill:url(#Dégradé_sans_nom_18);}.cls-6{fill:url(#Dégradé_sans_nom_20);}</style><linearGradient id="Dégradé_sans_nom_10" x1="88.9" y1="53.28" x2="158.08" y2="53.28" gradientTransform="translate(-1.5 102.92) rotate(-45)" gradientUnits="userSpaceOnUse"><stop offset="0" stop-color="#ff9474"/><stop offset="0.58" stop-color="#f14a7c"/><stop offset="1" stop-color="#e61182"/></linearGradient><linearGradient id="Dégradé_sans_nom_12" x1="81.42" y1="51.29" x2="152.63" y2="51.29" gradientTransform="translate(-1.99 97.77) rotate(-45)" gradientUnits="userSpaceOnUse"><stop offset="0" stop-color="#0aff00"/><stop offset="0.58" stop-color="#17b536"/><stop offset="1" stop-color="#207d5e"/></linearGradient><linearGradient id="Dégradé_sans_nom_18" x1="9.1" y1="54.62" x2="118.34" y2="54.62" gradientTransform="translate(-19.96 61.06) rotate(-45)" gradientUnits="userSpaceOnUse"><stop offset="0" stop-color="#821b90"/><stop offset="0.73" stop-color="#cc0a8e"/><stop offset="1" stop-color="#e9048d"/></linearGradient><linearGradient id="Dégradé_sans_nom_20" y1="71.06" x2="35.39" y2="71.06" gradientTransform="translate(-45.06 33.33) rotate(-45)" gradientUnits="userSpaceOnUse"><stop offset="0" stop-color="#fbc30d"/><stop offset="1" stop-color="#f89923"/></linearGradient></defs><g id="Calque_2" data-name="Calque 2"><g id="Calque_1-2" data-name="Calque 1"><path class="cls-1" d="M24,138.35a39.76,39.76,0,0,1,6.53-.51c3.36,0,5.82.78,7.39,2.19a7.1,7.1,0,0,1,2.3,5.51,7.75,7.75,0,0,1-2,5.63c-1.8,1.92-4.73,2.9-8,2.9a11.45,11.45,0,0,1-2.74-.24v10.56H24Zm3.4,12.7a11.16,11.16,0,0,0,2.82.28c4.1,0,6.6-2,6.6-5.63,0-3.48-2.46-5.16-6.21-5.16a14.77,14.77,0,0,0-3.21.27Z"/><path class="cls-1" d="M44.77,138h3.4v23.49H59.43v2.86H44.77Z"/><path class="cls-1" d="M73.58,164.39,73.31,162h-.12a7,7,0,0,1-5.78,2.82,5.4,5.4,0,0,1-5.79-5.44c0-4.57,4.07-7.07,11.38-7V152c0-1.56-.43-4.37-4.3-4.37a9.44,9.44,0,0,0-4.93,1.4L63,146.72A11.69,11.69,0,0,1,69.2,145c5.79,0,7.2,3.95,7.2,7.75v7.07a27.22,27.22,0,0,0,.31,4.54Zm-.51-9.66c-3.75-.08-8,.59-8,4.26a3,3,0,0,0,3.25,3.28,4.71,4.71,0,0,0,4.57-3.16,3.49,3.49,0,0,0,.19-1.1Z"/><path class="cls-1" d="M85.24,140.93h-8V138H96.73v2.89h-8v23.46H85.24Z"/><path class="cls-1" d="M113.89,154.77c0,7-4.84,10-9.42,10-5.12,0-9.07-3.76-9.07-9.74,0-6.33,4.15-10.05,9.38-10.05C110.22,145,113.89,149,113.89,154.77Zm-15,.19c0,4.15,2.39,7.28,5.75,7.28s5.74-3.09,5.74-7.35c0-3.21-1.6-7.27-5.66-7.27S98.88,151.37,98.88,155Z"/><path class="cls-1" d="M118.23,150.59c0-2,0-3.56-.15-5.13h3l.19,3.13h.08a7,7,0,0,1,6.26-3.56c2.62,0,6.68,1.57,6.68,8.06v11.3H130.9V153.48c0-3-1.13-5.59-4.38-5.59a4.89,4.89,0,0,0-4.61,3.52,4.82,4.82,0,0,0-.23,1.6v11.38h-3.45Z"/><rect class="cls-2" x="76.48" y="48.67" width="94.02" height="9.22" rx="4.61" transform="translate(73.84 -71.72) rotate(45)"/><rect class="cls-3" x="48.35" y="91.64" width="73.74" height="9.22" rx="4.61" transform="translate(213.54 104.04) rotate(135)"/><rect class="cls-4" x="90.39" y="24.65" width="53.28" height="53.28" rx="5" transform="translate(70.55 -67.73) rotate(45)"/><rect class="cls-5" x="23.64" y="14.53" width="80.17" height="80.17" rx="5" transform="translate(57.29 -29.06) rotate(45)"/><rect class="cls-6" x="3.72" y="57.08" width="27.95" height="27.95" rx="5" transform="translate(55.43 8.3) rotate(45)"/><path class="cls-1" d="M87.57,44c-3.49-8.59-12.7-14.77-20.79-13.84V35.5l1.66.19c9,1.05,15.6,8.74,15,17.39-.7,9.61-8,16.29-17.44,16A16.65,16.65,0,0,1,50,52.28c0-4.14,0-8.28,0-12.43,0-.58-.12-1.16-.24-2.26-3.24,4.38-5.49,8.54-5.5,13.57,0,9.12,0,18.23,0,27.35,0,.78.1,1.57.17,2.65,8.09-2,4.67-8.61,5.83-13.25C61.89,76.38,71.67,77,80.63,70A22.41,22.41,0,0,0,87.57,44Z"/><path class="cls-1" d="M56.44,51a14.2,14.2,0,0,0,1.09,5.5,10.5,10.5,0,0,0,10.06,6.43,10.8,10.8,0,0,0,9.51-5.18c-.38-.24-.51-.39-.65-.39-2.73,0-5.46,0-8.2-.06-4-.08-6-2-6-5.94-.07-3.64-.11-7.29-.13-10.93,0-3.38,0-6.76,0-10.33l-2.19.58c-2.55.65-3.68,2-3.53,4.91C56.63,40.69,56.31,45.84,56.44,51Z"/></g></g></svg>