<svg xmlns="http://www.w3.org/2000/svg" viewBox="0 0 159.08 174.66"><defs><style>.cls-1{font-size:39.1px;font-family:MyriadPro-Regular, Myriad Pro;}.cls-1,.cls-4{fill:#fff;}.cls-2{letter-spacing:-0.05em;}.cls-3{letter-spacing:-0.07em;}.cls-4{stroke:#000;stroke-miterlimit:10;}</style></defs><g id="Calque_2" data-name="Calque 2"><g id="Calque_1-2" data-name="Calque 1"><text class="cls-1" transform="translate(21.5 164.89)">PL<tspan class="cls-2" x="39.25" y="0">a</tspan><tspan class="cls-3" x="56.26" y="0">T</tspan><tspan x="72.92" y="0">on</tspan></text><rect class="cls-4" x="76.98" y="49.17" width="94.02" height="9.22" rx="4.61" transform="translate(74.34 -71.92) rotate(45)"/><rect class="cls-4" x="48.85" y="92.14" width="73.74" height="9.22" rx="4.61" transform="translate(214.75 104.54) rotate(135)"/><rect class="cls-4" x="90.89" y="25.15" width="53.28" height="53.28" rx="5" transform="translate(71.05 -67.93) rotate(45)"/><rect class="cls-4" x="24.14" y="15.03" width="80.17" height="80.17" rx="5" transform="translate(57.79 -29.27) rotate(45)"/><rect class="cls-4" x="4.22" y="57.58" width="27.95" height="27.95" rx="5" transform="translate(55.93 8.09) rotate(45)"/><path class="cls-4" d="M88.07,44.51c-3.49-8.59-12.7-14.77-20.79-13.84V36l1.66.19c9,1.05,15.6,8.74,15,17.39-.7,9.61-8,16.29-17.44,16A16.65,16.65,0,0,1,50.53,52.78c0-4.14,0-8.28,0-12.43,0-.58-.12-1.16-.24-2.26-3.24,4.38-5.49,8.54-5.5,13.57,0,9.12,0,18.23,0,27.35,0,.78.1,1.57.17,2.65,8.09-2,4.67-8.61,5.83-13.25,11.64,8.47,21.42,9.11,30.38,2A22.41,22.41,0,0,0,88.07,44.51Z"/><path class="cls-4" d="M56.94,51.48A14.2,14.2,0,0,0,58,57a10.5,10.5,0,0,0,10.06,6.43,10.8,10.8,0,0,0,9.51-5.18c-.38-.24-.51-.39-.65-.39-2.73,0-5.46,0-8.2-.06-4-.08-6-2-6-5.94-.07-3.64-.11-7.29-.13-10.93,0-3.38,0-6.76,0-10.33l-2.19.58c-2.55.65-3.68,2-3.53,4.91C57.13,41.19,56.81,46.34,56.94,51.48Z"/></g></g></svg>