<svg xmlns="http://www.w3.org/2000/svg" width="28" height="28" viewBox="0 0 28 28">
  <g id="ios-school" transform="translate(-2.317 -4.429)">
    <path id="Tracé_24" data-name="Tracé 24" d="M6.813,19v6.518a.568.568,0,0,0,.281.492l9.281,5.337a.564.564,0,0,0,.844-.492V24.265a.568.568,0,0,0-.281-.492L7.657,18.507a.572.572,0,0,0-.844.5Z" transform="translate(0 1.001)" stroke="white" fill="none"/>
    <path id="Tracé_25" data-name="Tracé 25" d="M19.751,31.352l9.288-5.336a.559.559,0,0,0,.281-.492V18.936a.565.565,0,0,0-.844-.492l-9.281,5.337a.559.559,0,0,0-.281.492v6.594a.556.556,0,0,0,.837.485Z" transform="translate(-3.503 1.001)" stroke="white" fill="none"/>
    <path id="Tracé_26" data-name="Tracé 26" d="M15.819,4.584,2.57,13.675a.64.64,0,0,0,0,1.02l13.249,8.651a.877.877,0,0,0,.994,0l11.755-7.908c.332-.228.437.058.437.514V27.217c0,.5.244.734.687.734a.671.671,0,0,0,.625-.734V14.6a.62.62,0,0,0-.25-.514l-13.255-9.5A.877.877,0,0,0,15.819,4.584Z" transform="translate(0)" stroke="white" fill="none"/>
  </g>
</svg>
