<svg xmlns="http://www.w3.org/2000/svg" width="24.75" height="31.5" viewBox="0 0 24.75 31.5">
  <path id="reader" d="M25.875,2.25H10.125a4.5,4.5,0,0,0-4.5,4.5v22.5a4.505,4.505,0,0,0,4.5,4.5h15.75a4.5,4.5,0,0,0,4.5-4.5V6.75a4.5,4.5,0,0,0-4.5-4.5ZM18,21.375H12.375a1.125,1.125,0,0,1,0-2.25H18a1.125,1.125,0,0,1,0,2.25Zm5.625-5.625H12.375a1.125,1.125,0,0,1,0-2.25h11.25a1.125,1.125,0,0,1,0,2.25Zm0-5.625H12.375a1.125,1.125,0,0,1,0-2.25h11.25a1.125,1.125,0,0,1,0,2.25Z" transform="translate(-5.625 -2.25)" stroke="white" fill="none"/>
</svg>
