<svg id="svg" version="1.1" xmlns="http://www.w3.org/2000/svg" fill="none" style="display: block;"
  viewBox="0 0 1000 1000">
  <rect width="1000" height="1000" fill="url(#gradient-fill)" />
  <defs>
    <linearGradient id="gradient-fill" x1="0" y1="1000" x2="1000" y2="1000" gradientUnits="userSpaceOnUse">

      <stop offset="0" stop-color="#00f38d" />

      <stop offset="0.14285714285714285" stop-color="#00ecb0" />

      <stop offset="0.2857142857142857" stop-color="#00e3d1" />

      <stop offset="0.42857142857142855" stop-color="#00d9ec" />

      <stop offset="0.5714285714285714" stop-color="#00cdff" />

      <stop offset="0.7142857142857142" stop-color="#00bfff" />

      <stop offset="0.8571428571428571" stop-color="#00afff" />

      <stop offset="1" stop-color="#009eff" />

    </linearGradient>
  </defs>
  <path
    d="M0,0 L568,0 L578,3 L583,7 L587,13 L588,16 L588,750 L585,756 L576,762 L569,764 L-2,764 L-12,759 L-17,753 L-21,742 L-21,696 L-74,696 L-84,692 L-90,685 L-93,679 L-93,668 L-89,660 L-84,654 L-74,650 L-21,650 L-21,581 L-78,581 L-85,578 L-91,574 L-96,567 L-96,547 L-90,540 L-88,540 L-87,537 L-78,534 L-21,534 L-21,478 L-76,478 L-86,474 L-94,464 L-95,461 L-95,448 L-91,441 L-83,434 L-77,431 L-21,431 L-21,335 L-76,335 L-86,331 L-89,329 L-92,324 L-92,322 L-94,322 L-95,319 L-95,305 L-91,298 L-83,291 L-77,289 L-21,289 L-21,232 L-79,232 L-88,228 L-95,221 L-96,219 L-96,199 L-91,192 L-85,188 L-79,186 L-21,186 L-21,117 L-74,117 L-85,111 L-91,104 L-93,99 L-93,88 L-89,80 L-84,74 L-74,70 L-21,70 L-21,22 L-18,12 L-11,4 Z M25,46 L25,70 L47,71 L57,75 L63,83 L64,86 L64,100 L61,107 L55,112 L47,116 L25,117 L25,186 L47,187 L57,191 L63,199 L64,202 L64,216 L60,224 L55,228 L47,231 L25,232 L25,289 L50,290 L59,294 L64,299 L65,302 L67,302 L66,305 L68,305 L68,319 L66,320 L60,329 L53,333 L49,334 L25,335 L25,431 L49,432 L56,435 L64,442 L67,448 L67,461 L63,468 L58,474 L49,477 L25,478 L25,534 L47,535 L57,538 L59,542 L63,547 L64,550 L64,564 L61,571 L55,576 L51,578 L51,580 L25,581 L25,650 L47,651 L57,655 L63,663 L64,666 L64,680 L60,688 L55,692 L47,695 L25,696 L25,718 L543,718 L543,46 Z "
    transform="translate(244,131)" style="fill: #FEFEFE;" />
  <path
    d="M0,0 L358,0 L368,5 L373,11 L374,15 L374,247 L370,255 L365,259 L358,261 L0,261 L-7,258 L-12,254 L-15,245 L-15,16 L-12,8 L-3,1 Z M20,36 L21,225 L339,225 L339,36 Z "
    transform="translate(357,391)" style="fill: #FEFEFE;" />
  <path
    d="M0,0 L362,0 L368,3 L374,10 L377,19 L377,139 L373,151 L367,156 L362,158 L1,158 L-6,155 L-11,151 L-14,142 L-14,16 L-12,9 L-7,4 L-5,4 L-5,2 Z M22,36 L22,123 L341,123 L341,36 Z "
    transform="translate(357,667)" style="fill: #FEFEFE;" />
  <path
    d="M0,0 L196,0 L203,3 L209,9 L210,12 L210,23 L207,28 L200,34 L196,35 L0,35 L-8,31 L-12,26 L-13,23 L-13,11 L-9,5 L-3,1 Z "
    transform="translate(473,314)" style="fill: #FEFEFE;" />
  <path
    d="M0,0 L196,0 L203,3 L209,9 L210,12 L210,23 L207,28 L200,34 L196,35 L0,35 L-8,31 L-12,26 L-13,23 L-13,11 L-9,5 L-3,1 Z "
    transform="translate(355,248)" style="fill: #FEFEFE;" />
  <path
    d="M0,0 L60,0 L67,3 L72,8 L72,12 L74,12 L74,23 L72,23 L71,28 L66,33 L60,35 L0,35 L-8,31 L-12,26 L-13,23 L-13,12 L-10,6 L-3,1 Z "
    transform="translate(356,316)" style="fill: #FEFEFE;" />
</svg>
